BenchTwelve Medium-bold.ufo
<glyph name="dollar" format="1">
  <advance width="2619"/>
  <unicode hex="0024"/>
  <outline>
    <contour>
      <point x="1055" y="-197" type="curve" smooth="yes"/>
      <point x="1093" y="-197" type="line" smooth="yes"/>
      <point x="1112" y="-197"/>
      <point x="1127" y="-175"/>
      <point x="1127" y="-129" type="curve" smooth="yes"/>
      <point x="1127" y="-40" type="line"/>
      <point x="1731" y="-30"/>
      <point x="1988" y="91"/>
      <point x="1988" y="444" type="curve" smooth="yes"/>
      <point x="1988" y="764"/>
      <point x="1655" y="861"/>
      <point x="1127" y="866" type="curve"/>
      <point x="1127" y="1241" type="line"/>
      <point x="1423" y="1228"/>
      <point x="1613" y="1158"/>
      <point x="1745" y="1126" type="curve" smooth="yes"/>
      <point x="1804" y="1122"/>
      <point x="1822" y="1169"/>
      <point x="1829" y="1181" type="curve" smooth="yes"/>
      <point x="1832" y="1187"/>
      <point x="1862" y="1255"/>
      <point x="1862" y="1262" type="curve" smooth="yes"/>
      <point x="1867" y="1293"/>
      <point x="1850" y="1326"/>
      <point x="1822" y="1337" type="curve" smooth="yes"/>
      <point x="1623" y="1422"/>
      <point x="1420" y="1467"/>
      <point x="1127" y="1473" type="curve"/>
      <point x="1127" y="1572" type="line" smooth="yes"/>
      <point x="1127" y="1618"/>
      <point x="1112" y="1640"/>
      <point x="1093" y="1640" type="curve" smooth="yes"/>
      <point x="1055" y="1640" type="line" smooth="yes"/>
      <point x="1036" y="1640"/>
      <point x="1021" y="1618"/>
      <point x="1021" y="1572" type="curve" smooth="yes"/>
      <point x="1021" y="1475" type="line"/>
      <point x="559" y="1475"/>
      <point x="148" y="1416"/>
      <point x="148" y="1024" type="curve" smooth="yes"/>
      <point x="148" y="677"/>
      <point x="502" y="621"/>
      <point x="1021" y="605" type="curve"/>
      <point x="1021" y="195" type="line"/>
      <point x="589" y="207"/>
      <point x="405" y="297"/>
      <point x="266" y="327" type="curve" smooth="yes"/>
      <point x="232" y="330"/>
      <point x="204" y="315"/>
      <point x="188" y="281" type="curve" smooth="yes"/>
      <point x="188" y="281"/>
      <point x="149" y="181"/>
      <point x="149" y="176" type="curve" smooth="yes"/>
      <point x="145" y="144"/>
      <point x="161" y="111"/>
      <point x="190" y="100" type="curve" smooth="yes"/>
      <point x="476" y="-8"/>
      <point x="713" y="-40"/>
      <point x="1021" y="-41" type="curve"/>
      <point x="1021" y="-129" type="line" smooth="yes"/>
      <point x="1021" y="-175"/>
      <point x="1036" y="-197"/>
    </contour>
    <contour>
      <point x="1127" y="194" type="curve"/>
      <point x="1127" y="602" type="line"/>
      <point x="1534" y="601"/>
      <point x="1602" y="538"/>
      <point x="1602" y="410" type="curve" smooth="yes"/>
      <point x="1602" y="273"/>
      <point x="1516" y="197"/>
      <point x="1123" y="194" type="curve" smooth="yes"/>
      <point x="1126" y="194"/>
      <point x="1124" y="194"/>
    </contour>
    <contour>
      <point x="1021" y="868" type="line"/>
      <point x="587" y="887"/>
      <point x="526" y="941"/>
      <point x="526" y="1055" type="curve" smooth="yes"/>
      <point x="526" y="1166"/>
      <point x="649" y="1239"/>
      <point x="1021" y="1243" type="curve"/>
    </contour>
  </outline>
</glyph>
<glyph name="parenleft" format="1">
  <advance width="896"/>
  <unicode hex="0028"/>
  <outline>
    <contour>
      <point x="701" y="-143" type="curve" smooth="yes"/>
      <point x="740" y="-152"/>
      <point x="778" y="-111"/>
      <point x="778" y="-73" type="curve" smooth="yes"/>
      <point x="778" y="-30" type="line" smooth="yes"/>
      <point x="778" y="39"/>
      <point x="739" y="41"/>
      <point x="681" y="77" type="curve" smooth="yes"/>
      <point x="519" y="175"/>
      <point x="439" y="344"/>
      <point x="439" y="699" type="curve" smooth="yes"/>
      <point x="439" y="1047"/>
      <point x="540" y="1243"/>
      <point x="681" y="1321" type="curve" smooth="yes"/>
      <point x="743" y="1354"/>
      <point x="778" y="1358"/>
      <point x="778" y="1427" type="curve" smooth="yes"/>
      <point x="778" y="1470" type="line" smooth="yes"/>
      <point x="778" y="1508"/>
      <point x="740" y="1549"/>
      <point x="701" y="1540" type="curve" smooth="yes"/>
      <point x="316" y="1457"/>
      <point x="140" y="1099"/>
      <point x="140" y="699" type="curve" smooth="yes"/>
      <point x="140" y="298"/>
      <point x="302" y="-54"/>
    </contour>
  </outline>
</glyph>
<glyph name="plus" format="1">
  <advance width="1229"/>
  <unicode hex="002B"/>
  <outline>
    <contour>
      <point x="563" y="47" type="curve" smooth="yes"/>
      <point x="666" y="47" type="line" smooth="yes"/>
      <point x="709" y="47"/>
      <point x="729" y="74"/>
      <point x="729" y="117" type="curve" smooth="yes"/>
      <point x="729" y="422" type="line" smooth="yes"/>
      <point x="729" y="442"/>
      <point x="739" y="459"/>
      <point x="759" y="459" type="curve" smooth="yes"/>
      <point x="1042" y="459" type="line" smooth="yes"/>
      <point x="1085" y="459"/>
      <point x="1105" y="479"/>
      <point x="1105" y="522" type="curve" smooth="yes"/>
      <point x="1105" y="624" type="line" smooth="yes"/>
      <point x="1105" y="667"/>
      <point x="1085" y="687"/>
      <point x="1042" y="687" type="curve" smooth="yes"/>
      <point x="759" y="687" type="line" smooth="yes"/>
      <point x="739" y="687"/>
      <point x="729" y="704"/>
      <point x="729" y="724" type="curve" smooth="yes"/>
      <point x="729" y="1036" type="line" smooth="yes"/>
      <point x="729" y="1079"/>
      <point x="709" y="1106"/>
      <point x="666" y="1106" type="curve" smooth="yes"/>
      <point x="563" y="1106" type="line" smooth="yes"/>
      <point x="520" y="1106"/>
      <point x="500" y="1079"/>
      <point x="500" y="1036" type="curve" smooth="yes"/>
      <point x="500" y="724" type="line" smooth="yes"/>
      <point x="500" y="704"/>
      <point x="490" y="687"/>
      <point x="470" y="687" type="curve" smooth="yes"/>
      <point x="186" y="687" type="line" smooth="yes"/>
      <point x="143" y="687"/>
      <point x="123" y="667"/>
      <point x="123" y="624" type="curve" smooth="yes"/>
      <point x="123" y="522" type="line" smooth="yes"/>
      <point x="123" y="479"/>
      <point x="143" y="459"/>
      <point x="186" y="459" type="curve" smooth="yes"/>
      <point x="470" y="459" type="line" smooth="yes"/>
      <point x="490" y="459"/>
      <point x="500" y="442"/>
      <point x="500" y="422" type="curve" smooth="yes"/>
      <point x="500" y="117" type="line" smooth="yes"/>
      <point x="500" y="74"/>
      <point x="520" y="47"/>
    </contour>
  </outline>
</glyph>
<glyph name="two" format="1">
  <advance width="2060"/>
  <unicode hex="0032"/>
  <outline>
    <contour>
      <point x="228" y="1" type="curve" smooth="yes"/>
      <point x="1813" y="1" type="line" smooth="yes"/>
      <point x="1853" y="1"/>
      <point x="1867" y="15"/>
      <point x="1867" y="59" type="curve" smooth="yes"/>
      <point x="1867" y="152" type="line" smooth="yes"/>
      <point x="1867" y="198"/>
      <point x="1847" y="216"/>
      <point x="1819" y="216" type="curve" smooth="yes"/>
      <point x="618" y="216" type="line" smooth="yes"/>
      <point x="581" y="216"/>
      <point x="552" y="235"/>
      <point x="552" y="267" type="curve" smooth="yes"/>
      <point x="552" y="283"/>
      <point x="557" y="289"/>
      <point x="564" y="295" type="curve" smooth="yes"/>
      <point x="809" y="748"/>
      <point x="1926" y="328"/>
      <point x="1908" y="1007" type="curve" smooth="yes"/>
      <point x="1896" y="1378"/>
      <point x="1514" y="1477"/>
      <point x="964" y="1477" type="curve"/>
      <point x="720" y="1476"/>
      <point x="354" y="1395"/>
      <point x="232" y="1347" type="curve" smooth="yes"/>
      <point x="206" y="1335"/>
      <point x="196" y="1315"/>
      <point x="196" y="1278" type="curve" smooth="yes"/>
      <point x="196" y="1274"/>
      <point x="206" y="1228"/>
      <point x="239" y="1161" type="curve"/>
      <point x="244" y="1140"/>
      <point x="263" y="1131"/>
      <point x="296" y="1131" type="curve" smooth="yes"/>
      <point x="310" y="1131"/>
      <point x="323" y="1135"/>
      <point x="342" y="1141" type="curve" smooth="yes"/>
      <point x="365" y="1149"/>
      <point x="704" y="1253"/>
      <point x="1005" y="1253" type="curve" smooth="yes"/>
      <point x="1473" y="1253"/>
      <point x="1574" y="1165"/>
      <point x="1574" y="995" type="curve" smooth="yes"/>
      <point x="1574" y="594"/>
      <point x="292" y="1079"/>
      <point x="138" y="151" type="curve" smooth="yes"/>
      <point x="137" y="140"/>
      <point x="132" y="101"/>
      <point x="132" y="91" type="curve" smooth="yes"/>
      <point x="132" y="35"/>
      <point x="167" y="1"/>
    </contour>
  </outline>
</glyph>
<glyph name="three" format="1">
  <advance width="2040"/>
  <unicode hex="0033"/>
  <outline>
    <contour>
      <point x="1017" y="-40" type="curve" smooth="yes"/>
      <point x="1622" y="-40"/>
      <point x="1896" y="113"/>
      <point x="1896" y="396" type="curve" smooth="yes"/>
      <point x="1896" y="574"/>
      <point x="1776" y="697"/>
      <point x="1567" y="723" type="curve"/>
      <point x="1767" y="743"/>
      <point x="1879" y="860"/>
      <point x="1879" y="1038" type="curve" smooth="yes"/>
      <point x="1879" y="1314"/>
      <point x="1645" y="1474"/>
      <point x="1040" y="1474" type="curve" smooth="yes"/>
      <point x="794" y="1474"/>
      <point x="306" y="1399"/>
      <point x="194" y="1366" type="curve" smooth="yes"/>
      <point x="157" y="1356"/>
      <point x="141" y="1339"/>
      <point x="141" y="1309" type="curve" smooth="yes"/>
      <point x="141" y="1305"/>
      <point x="141" y="1301"/>
      <point x="142" y="1296" type="curve" smooth="yes"/>
      <point x="157" y="1194" type="line" smooth="yes"/>
      <point x="161" y="1163"/>
      <point x="180" y="1150"/>
      <point x="206" y="1150" type="curve" smooth="yes"/>
      <point x="213" y="1150"/>
      <point x="220" y="1151"/>
      <point x="229" y="1153" type="curve" smooth="yes"/>
      <point x="268" y="1160"/>
      <point x="683" y="1252"/>
      <point x="1043" y="1252" type="curve" smooth="yes"/>
      <point x="1314" y="1252"/>
      <point x="1495" y="1210"/>
      <point x="1508" y="1068" type="curve" smooth="yes"/>
      <point x="1520" y="948"/>
      <point x="1473" y="825"/>
      <point x="1118" y="825" type="curve" smooth="yes"/>
      <point x="882" y="825" type="line" smooth="yes"/>
      <point x="850" y="825"/>
      <point x="850" y="796"/>
      <point x="850" y="782" type="curve" smooth="yes"/>
      <point x="850" y="669" type="line" smooth="yes"/>
      <point x="850" y="655"/>
      <point x="850" y="626"/>
      <point x="882" y="626" type="curve" smooth="yes"/>
      <point x="1118" y="626" type="line" smooth="yes"/>
      <point x="1462" y="626"/>
      <point x="1536" y="512"/>
      <point x="1524" y="391" type="curve" smooth="yes"/>
      <point x="1515" y="279"/>
      <point x="1394" y="182"/>
      <point x="1023" y="182" type="curve" smooth="yes"/>
      <point x="689" y="182"/>
      <point x="259" y="273"/>
      <point x="220" y="280" type="curve" smooth="yes"/>
      <point x="211" y="282"/>
      <point x="204" y="283"/>
      <point x="197" y="283" type="curve" smooth="yes"/>
      <point x="171" y="283"/>
      <point x="157" y="270"/>
      <point x="153" y="239" type="curve" smooth="yes"/>
      <point x="142" y="136" type="line" smooth="yes"/>
      <point x="141" y="131"/>
      <point x="141" y="127"/>
      <point x="141" y="123" type="curve" smooth="yes"/>
      <point x="141" y="93"/>
      <point x="157" y="76"/>
      <point x="194" y="66" type="curve" smooth="yes"/>
      <point x="306" y="33"/>
      <point x="797" y="-40"/>
    </contour>
  </outline>
</glyph>
<glyph name="six" format="1">
  <advance width="2018"/>
  <unicode hex="0036"/>
  <outline>
    <contour>
      <point x="1004" y="-41" type="curve" smooth="yes"/>
      <point x="1505" y="-41"/>
      <point x="1885" y="60"/>
      <point x="1885" y="433" type="curve" smooth="yes"/>
      <point x="1885" y="697"/>
      <point x="1686" y="907"/>
      <point x="1065" y="907" type="curve" smooth="yes"/>
      <point x="910" y="907"/>
      <point x="737" y="889"/>
      <point x="534" y="860" type="curve"/>
      <point x="534" y="909" type="line"/>
      <point x="533" y="1144"/>
      <point x="688" y="1247"/>
      <point x="1068" y="1248" type="curve" smooth="yes"/>
      <point x="1286" y="1249"/>
      <point x="1572" y="1187"/>
      <point x="1645" y="1158" type="curve" smooth="yes"/>
      <point x="1651" y="1156"/>
      <point x="1657" y="1155"/>
      <point x="1663" y="1155" type="curve" smooth="yes"/>
      <point x="1681" y="1155"/>
      <point x="1695" y="1164"/>
      <point x="1700" y="1186" type="curve" smooth="yes"/>
      <point x="1730" y="1315" type="line" smooth="yes"/>
      <point x="1732" y="1320"/>
      <point x="1732" y="1324"/>
      <point x="1732" y="1329" type="curve" smooth="yes"/>
      <point x="1732" y="1351"/>
      <point x="1720" y="1365"/>
      <point x="1697" y="1373" type="curve" smooth="yes"/>
      <point x="1579" y="1417"/>
      <point x="1269" y="1473"/>
      <point x="1071" y="1473" type="curve" smooth="yes"/>
      <point x="427" y="1473"/>
      <point x="139" y="1271"/>
      <point x="139" y="713" type="curve" smooth="yes"/>
      <point x="139" y="258"/>
      <point x="363" y="-41"/>
    </contour>
    <contour>
      <point x="1009" y="175" type="curve" smooth="yes"/>
      <point x="681" y="175"/>
      <point x="526" y="291"/>
      <point x="526" y="540" type="curve" smooth="yes"/>
      <point x="526" y="670" type="line"/>
      <point x="737" y="702"/>
      <point x="909" y="717"/>
      <point x="1046" y="717" type="curve" smooth="yes"/>
      <point x="1425" y="717"/>
      <point x="1514" y="608"/>
      <point x="1514" y="444" type="curve" smooth="yes"/>
      <point x="1514" y="225"/>
      <point x="1339" y="175"/>
    </contour>
  </outline>
</glyph>
<glyph name="at" format="1">
  <advance width="2244"/>
  <unicode hex="0040"/>
  <outline>
    <contour>
      <point x="1068" y="-285" type="curve" smooth="yes"/>
      <point x="1212" y="-285"/>
      <point x="1339" y="-263"/>
      <point x="1449" y="-223" type="curve"/>
      <point x="1398" y="-53" type="line"/>
      <point x="1313" y="-87"/>
      <point x="1213" y="-106"/>
      <point x="1096" y="-106" type="curve" smooth="yes"/>
      <point x="589" y="-106"/>
      <point x="376" y="241"/>
      <point x="376" y="590" type="curve" smooth="yes"/>
      <point x="376" y="971"/>
      <point x="641" y="1285"/>
      <point x="1148" y="1285" type="curve" smooth="yes"/>
      <point x="1649" y="1285"/>
      <point x="1907" y="975"/>
      <point x="1907" y="601" type="curve" smooth="yes"/>
      <point x="1907" y="306"/>
      <point x="1850" y="277"/>
      <point x="1797" y="277" type="curve" smooth="yes"/>
      <point x="1748" y="277"/>
      <point x="1702" y="310"/>
      <point x="1702" y="403" type="curve" smooth="yes"/>
      <point x="1702" y="925" type="line" smooth="yes"/>
      <point x="1702" y="959"/>
      <point x="1673" y="986"/>
      <point x="1636" y="986" type="curve" smooth="yes"/>
      <point x="1620" y="986" type="line" smooth="yes"/>
      <point x="1580" y="986"/>
      <point x="1550" y="974"/>
      <point x="1543" y="936" type="curve"/>
      <point x="1524" y="811" type="line" smooth="yes"/>
      <point x="1522" y="803"/>
      <point x="1521" y="798"/>
      <point x="1518" y="798" type="curve" smooth="yes"/>
      <point x="1515" y="798"/>
      <point x="1512" y="802"/>
      <point x="1508" y="810" type="curve" smooth="yes"/>
      <point x="1449" y="927"/>
      <point x="1293" y="1031"/>
      <point x="1085" y="1031" type="curve" smooth="yes"/>
      <point x="801" y="1031"/>
      <point x="576" y="865"/>
      <point x="576" y="573" type="curve" smooth="yes"/>
      <point x="576" y="264"/>
      <point x="828" y="101"/>
      <point x="1112" y="101" type="curve" smooth="yes"/>
      <point x="1330" y="101"/>
      <point x="1450" y="208"/>
      <point x="1520" y="315" type="curve" smooth="yes"/>
      <point x="1526" y="324"/>
      <point x="1533" y="339"/>
      <point x="1541" y="339" type="curve" smooth="yes"/>
      <point x="1548" y="339"/>
      <point x="1555" y="322"/>
      <point x="1558" y="301" type="curve"/>
      <point x="1564" y="205"/>
      <point x="1674" y="127"/>
      <point x="1794" y="127" type="curve" smooth="yes"/>
      <point x="1944" y="127"/>
      <point x="2109" y="247"/>
      <point x="2109" y="601" type="curve"/>
      <point x="2107" y="1061"/>
      <point x="1763" y="1475"/>
      <point x="1144" y="1475" type="curve" smooth="yes"/>
      <point x="524" y="1475"/>
      <point x="137" y="1089"/>
      <point x="137" y="595" type="curve" smooth="yes"/>
      <point x="137" y="131"/>
      <point x="448" y="-285"/>
    </contour>
    <contour>
      <point x="1120" y="283" type="curve" smooth="yes"/>
      <point x="916" y="283"/>
      <point x="824" y="412"/>
      <point x="824" y="559" type="curve" smooth="yes"/>
      <point x="824" y="701"/>
      <point x="899" y="840"/>
      <point x="1119" y="840" type="curve" smooth="yes"/>
      <point x="1285" y="840"/>
      <point x="1463" y="765"/>
      <point x="1463" y="564" type="curve" smooth="yes"/>
      <point x="1463" y="348"/>
      <point x="1288" y="283"/>
    </contour>
  </outline>
</glyph>
<glyph name="D" format="1">
  <advance width="2281"/>
  <unicode hex="0044"/>
  <outline>
    <contour>
      <point x="560" y="226" type="curve" smooth="yes"/>
      <point x="555" y="226"/>
      <point x="530" y="246"/>
      <point x="530" y="252" type="curve" smooth="yes"/>
      <point x="530" y="1190" type="line" smooth="yes"/>
      <point x="530" y="1196"/>
      <point x="550" y="1214"/>
      <point x="556" y="1214" type="curve" smooth="yes"/>
      <point x="573" y="1214"/>
      <point x="1136" y="1215"/>
      <point x="1153" y="1215" type="curve" smooth="yes"/>
      <point x="1499" y="1215"/>
      <point x="1777" y="1107"/>
      <point x="1777" y="723" type="curve" smooth="yes"/>
      <point x="1777" y="285"/>
      <point x="1500" y="226"/>
      <point x="1144" y="226" type="curve" smooth="yes"/>
      <point x="1127" y="226"/>
      <point x="581" y="225"/>
    </contour>
    <contour>
      <point x="230" y="0" type="curve" smooth="yes"/>
      <point x="1165" y="0" type="line" smooth="yes"/>
      <point x="1663" y="0"/>
      <point x="2145" y="77"/>
      <point x="2145" y="725" type="curve" smooth="yes"/>
      <point x="2145" y="1284"/>
      <point x="1675" y="1438"/>
      <point x="1198" y="1438" type="curve" smooth="yes"/>
      <point x="230" y="1438" type="line" smooth="yes"/>
      <point x="187" y="1438"/>
      <point x="160" y="1410"/>
      <point x="160" y="1367" type="curve" smooth="yes"/>
      <point x="160" y="70" type="line" smooth="yes"/>
      <point x="160" y="27"/>
      <point x="187" y="0"/>
    </contour>
    <contour>
      <point x="1141" y="1438" type="move" name="top"/>
    </contour>
    <contour>
      <point x="1141" y="719" type="move" name="center"/>
    </contour>
  </outline>
</glyph>
<glyph name="F" format="1">
  <advance width="1806"/>
  <unicode hex="0046"/>
  <outline>
    <contour>
      <point x="230" y="0" type="curve" smooth="yes"/>
      <point x="473" y="0" type="line" smooth="yes"/>
      <point x="516" y="0"/>
      <point x="543" y="27"/>
      <point x="543" y="70" type="curve" smooth="yes"/>
      <point x="543" y="546" type="line" smooth="yes"/>
      <point x="543" y="552"/>
      <point x="558" y="569"/>
      <point x="564" y="569" type="curve" smooth="yes"/>
      <point x="1436" y="569" type="line" smooth="yes"/>
      <point x="1479" y="569"/>
      <point x="1506" y="603"/>
      <point x="1506" y="646" type="curve" smooth="yes"/>
      <point x="1506" y="710" type="line" smooth="yes"/>
      <point x="1506" y="753"/>
      <point x="1479" y="787"/>
      <point x="1436" y="787" type="curve" smooth="yes"/>
      <point x="560" y="787" type="line" smooth="yes"/>
      <point x="554" y="787"/>
      <point x="543" y="798"/>
      <point x="543" y="804" type="curve" smooth="yes"/>
      <point x="543" y="1183" type="line" smooth="yes"/>
      <point x="543" y="1203"/>
      <point x="548" y="1211"/>
      <point x="568" y="1211" type="curve" smooth="yes"/>
      <point x="1625" y="1211" type="line" smooth="yes"/>
      <point x="1668" y="1211"/>
      <point x="1694" y="1245"/>
      <point x="1694" y="1288" type="curve" smooth="yes"/>
      <point x="1694" y="1361" type="line" smooth="yes"/>
      <point x="1694" y="1404"/>
      <point x="1668" y="1438"/>
      <point x="1625" y="1438" type="curve" smooth="yes"/>
      <point x="230" y="1438" type="line" smooth="yes"/>
      <point x="187" y="1438"/>
      <point x="160" y="1404"/>
      <point x="160" y="1361" type="curve" smooth="yes"/>
      <point x="160" y="70" type="line" smooth="yes"/>
      <point x="160" y="27"/>
      <point x="187" y="0"/>
    </contour>
  </outline>
</glyph>
<glyph name="J" format="1">
  <advance width="1271"/>
  <unicode hex="004A"/>
  <outline>
    <contour>
      <point x="123" y="-210" type="curve" smooth="yes"/>
      <point x="599" y="-208"/>
      <point x="1116" y="-120"/>
      <point x="1116" y="504" type="curve" smooth="yes"/>
      <point x="1116" y="1380" type="line" smooth="yes"/>
      <point x="1116" y="1416"/>
      <point x="1094" y="1438"/>
      <point x="1057" y="1438" type="curve" smooth="yes"/>
      <point x="773" y="1438" type="line" smooth="yes"/>
      <point x="737" y="1438"/>
      <point x="714" y="1416"/>
      <point x="714" y="1380" type="curve" smooth="yes"/>
      <point x="714" y="504" type="line" smooth="yes"/>
      <point x="714" y="80"/>
      <point x="461" y="36"/>
      <point x="123" y="33" type="curve" smooth="yes"/>
      <point x="108" y="33"/>
      <point x="90" y="18"/>
      <point x="90" y="-16" type="curve" smooth="yes"/>
      <point x="90" y="-162" type="line" smooth="yes"/>
      <point x="90" y="-192"/>
      <point x="107" y="-210"/>
    </contour>
    <contour>
      <point x="636" y="1438" type="move" name="top"/>
    </contour>
  </outline>
</glyph>
<glyph name="M" format="1">
  <advance width="2595"/>
  <unicode hex="004D"/>
  <outline>
    <contour>
      <point x="213" y="0" type="curve" smooth="yes"/>
      <point x="421" y="0" type="line" smooth="yes"/>
      <point x="464" y="0"/>
      <point x="492" y="27"/>
      <point x="493" y="70" type="curve"/>
      <point x="572" y="970" type="line" smooth="yes"/>
      <point x="572" y="973"/>
      <point x="584" y="977"/>
      <point x="585" y="974" type="curve" smooth="yes"/>
      <point x="1113" y="67" type="line" smooth="yes"/>
      <point x="1136" y="26"/>
      <point x="1174" y="1"/>
      <point x="1217" y="0" type="curve" smooth="yes"/>
      <point x="1363" y="0" type="line" smooth="yes"/>
      <point x="1405" y="1"/>
      <point x="1444" y="26"/>
      <point x="1468" y="67" type="curve" smooth="yes"/>
      <point x="2013" y="984" type="line" smooth="yes"/>
      <point x="2014" y="986"/>
      <point x="2027" y="985"/>
      <point x="2027" y="982" type="curve" smooth="yes"/>
      <point x="2100" y="70" type="line"/>
      <point x="2103" y="27"/>
      <point x="2131" y="0"/>
      <point x="2174" y="0" type="curve" smooth="yes"/>
      <point x="2382" y="0" type="line" smooth="yes"/>
      <point x="2425" y="0"/>
      <point x="2450" y="27"/>
      <point x="2448" y="70" type="curve"/>
      <point x="2348" y="1368" type="line"/>
      <point x="2345" y="1410"/>
      <point x="2320" y="1436"/>
      <point x="2280" y="1438" type="curve" smooth="yes"/>
      <point x="2003" y="1438" type="line" smooth="yes"/>
      <point x="1961" y="1436"/>
      <point x="1923" y="1412"/>
      <point x="1899" y="1371" type="curve" smooth="yes"/>
      <point x="1304" y="366" type="line" smooth="yes"/>
      <point x="1302" y="362"/>
      <point x="1281" y="362"/>
      <point x="1279" y="366" type="curve" smooth="yes"/>
      <point x="698" y="1371" type="line" smooth="yes"/>
      <point x="675" y="1412"/>
      <point x="637" y="1436"/>
      <point x="595" y="1438" type="curve" smooth="yes"/>
      <point x="319" y="1438" type="line" smooth="yes"/>
      <point x="279" y="1436"/>
      <point x="254" y="1410"/>
      <point x="251" y="1368" type="curve"/>
      <point x="146" y="70" type="line"/>
      <point x="144" y="27"/>
      <point x="170" y="0"/>
    </contour>
  </outline>
</glyph>
<glyph name="U" format="1">
  <advance width="2355"/>
  <unicode hex="0055"/>
  <outline>
    <contour>
      <point x="1184" y="-41" type="curve" smooth="yes"/>
      <point x="1657" y="-41"/>
      <point x="2204" y="44"/>
      <point x="2204" y="672" type="curve" smooth="yes"/>
      <point x="2204" y="1368" type="line" smooth="yes"/>
      <point x="2204" y="1411"/>
      <point x="2177" y="1438"/>
      <point x="2134" y="1438" type="curve" smooth="yes"/>
      <point x="1884" y="1438" type="line" smooth="yes"/>
      <point x="1841" y="1438"/>
      <point x="1814" y="1411"/>
      <point x="1814" y="1368" type="curve" smooth="yes"/>
      <point x="1814" y="672" type="line" smooth="yes"/>
      <point x="1814" y="244"/>
      <point x="1528" y="196"/>
      <point x="1184" y="196" type="curve" smooth="yes"/>
      <point x="842" y="196"/>
      <point x="554" y="244"/>
      <point x="554" y="672" type="curve" smooth="yes"/>
      <point x="554" y="1368" type="line" smooth="yes"/>
      <point x="554" y="1411"/>
      <point x="542" y="1438"/>
      <point x="484" y="1438" type="curve" smooth="yes"/>
      <point x="223" y="1438" type="line" smooth="yes"/>
      <point x="194" y="1438"/>
      <point x="152" y="1411"/>
      <point x="152" y="1368" type="curve" smooth="yes"/>
      <point x="152" y="672" type="line" smooth="yes"/>
      <point x="152" y="44"/>
      <point x="708" y="-41"/>
    </contour>
    <contour>
      <point x="1177" y="1438" type="move" name="top"/>
    </contour>
    <contour>
      <point x="2120" y="10" type="move" name="ogonek"/>
    </contour>
  </outline>
</glyph>
<glyph name="X" format="1">
  <advance width="2113"/>
  <unicode hex="0058"/>
  <outline>
    <contour>
      <point x="147" y="0" type="curve" smooth="yes"/>
      <point x="377" y="0" type="line" smooth="yes"/>
      <point x="421" y="0"/>
      <point x="468" y="23"/>
      <point x="506" y="62" type="curve" smooth="yes"/>
      <point x="1033" y="542" type="line"/>
      <point x="1516" y="63" type="line" smooth="yes"/>
      <point x="1556" y="23"/>
      <point x="1604" y="0"/>
      <point x="1649" y="0" type="curve" smooth="yes"/>
      <point x="1965" y="0" type="line" smooth="yes"/>
      <point x="1987" y="0"/>
      <point x="1998" y="9"/>
      <point x="1998" y="23" type="curve" smooth="yes"/>
      <point x="1998" y="33"/>
      <point x="1989" y="47"/>
      <point x="1973" y="63" type="curve" smooth="yes"/>
      <point x="1277" y="770" type="line"/>
      <point x="1938" y="1376" type="line" smooth="yes"/>
      <point x="1952" y="1392"/>
      <point x="1960" y="1405"/>
      <point x="1960" y="1415" type="curve" smooth="yes"/>
      <point x="1960" y="1429"/>
      <point x="1949" y="1438"/>
      <point x="1927" y="1438" type="curve" smooth="yes"/>
      <point x="1688" y="1438" type="line" smooth="yes"/>
      <point x="1644" y="1438"/>
      <point x="1597" y="1415"/>
      <point x="1559" y="1376" type="curve" smooth="yes"/>
      <point x="1100" y="955" type="line"/>
      <point x="678" y="1375" type="line" smooth="yes"/>
      <point x="638" y="1415"/>
      <point x="590" y="1438"/>
      <point x="545" y="1438" type="curve" smooth="yes"/>
      <point x="218" y="1438" type="line" smooth="yes"/>
      <point x="196" y="1438"/>
      <point x="185" y="1429"/>
      <point x="185" y="1416" type="curve" smooth="yes"/>
      <point x="185" y="1406"/>
      <point x="194" y="1391"/>
      <point x="211" y="1375" type="curve" smooth="yes"/>
      <point x="855" y="725" type="line"/>
      <point x="136" y="62" type="line" smooth="yes"/>
      <point x="121" y="46"/>
      <point x="114" y="33"/>
      <point x="114" y="23" type="curve" smooth="yes"/>
      <point x="114" y="9"/>
      <point x="125" y="0"/>
    </contour>
  </outline>
</glyph>
<glyph name="grave" format="1">
  <advance width="1745"/>
  <unicode hex="0060"/>
  <outline>
    <contour>
      <point x="1105" y="1173" type="curve" smooth="yes"/>
      <point x="1168" y="1173" type="line" smooth="yes"/>
      <point x="1187" y="1172"/>
      <point x="1197" y="1177"/>
      <point x="1189" y="1220" type="curve"/>
      <point x="1132" y="1548" type="line" smooth="yes"/>
      <point x="1128" y="1569"/>
      <point x="1120" y="1584"/>
      <point x="1101" y="1591" type="curve" smooth="yes"/>
      <point x="1090" y="1602"/>
      <point x="1000" y="1604"/>
      <point x="985" y="1604" type="curve" smooth="yes"/>
      <point x="979" y="1604"/>
      <point x="855" y="1600"/>
      <point x="855" y="1595" type="curve" smooth="yes"/>
      <point x="823" y="1592"/>
      <point x="824" y="1579"/>
      <point x="845" y="1547" type="curve" smooth="yes"/>
      <point x="1049" y="1216" type="line" smooth="yes"/>
      <point x="1059" y="1201"/>
      <point x="1073" y="1173"/>
    </contour>
    <contour>
      <point x="817" y="1006" type="move" name="_top"/>
    </contour>
  </outline>
</glyph>
<glyph name="a" format="1">
  <advance width="1780"/>
  <unicode hex="0061"/>
  <outline>
    <contour>
      <point x="725" y="-41" type="curve" smooth="yes"/>
      <point x="1089" y="-41"/>
      <point x="1301" y="76"/>
      <point x="1386" y="231" type="curve" smooth="yes"/>
      <point x="1390" y="239"/>
      <point x="1395" y="257"/>
      <point x="1400" y="257" type="curve" smooth="yes"/>
      <point x="1406" y="257"/>
      <point x="1408" y="244"/>
      <point x="1412" y="226" type="curve" smooth="yes"/>
      <point x="1417" y="206"/>
      <point x="1435" y="148"/>
      <point x="1447" y="101" type="curve" smooth="yes"/>
      <point x="1461" y="36"/>
      <point x="1484" y="0"/>
      <point x="1524" y="0" type="curve" smooth="yes"/>
      <point x="1582" y="0" type="line" smooth="yes"/>
      <point x="1617" y="0"/>
      <point x="1636" y="30"/>
      <point x="1636" y="84" type="curve" smooth="yes"/>
      <point x="1636" y="589" type="line" smooth="yes"/>
      <point x="1636" y="924"/>
      <point x="1403" y="1053"/>
      <point x="905" y="1053" type="curve" smooth="yes"/>
      <point x="476" y="1053"/>
      <point x="269" y="988"/>
      <point x="186" y="846" type="curve" smooth="yes"/>
      <point x="179" y="834"/>
      <point x="175" y="819"/>
      <point x="175" y="802" type="curve" smooth="yes"/>
      <point x="175" y="785"/>
      <point x="190" y="767"/>
      <point x="207" y="765" type="curve" smooth="yes"/>
      <point x="393" y="742" type="line" smooth="yes"/>
      <point x="402" y="741"/>
      <point x="407" y="740"/>
      <point x="413" y="740" type="curve" smooth="yes"/>
      <point x="434" y="740"/>
      <point x="462" y="764"/>
      <point x="483" y="785" type="curve" smooth="yes"/>
      <point x="570" y="870"/>
      <point x="824" y="882"/>
      <point x="908" y="882" type="curve" smooth="yes"/>
      <point x="1217" y="882"/>
      <point x="1294" y="800"/>
      <point x="1294" y="655" type="curve" smooth="yes"/>
      <point x="1294" y="640" type="line" smooth="yes"/>
      <point x="1294" y="602"/>
      <point x="134" y="664"/>
      <point x="139" y="238" type="curve" smooth="yes"/>
      <point x="141" y="62"/>
      <point x="342" y="-41"/>
    </contour>
    <contour>
      <point x="768" y="128" type="curve" smooth="yes"/>
      <point x="550" y="128"/>
      <point x="476" y="175"/>
      <point x="475" y="258" type="curve" smooth="yes"/>
      <point x="473" y="378"/>
      <point x="641" y="437"/>
      <point x="1144" y="477" type="curve" smooth="yes"/>
      <point x="1149" y="478"/>
      <point x="1280" y="485"/>
      <point x="1283" y="485" type="curve" smooth="yes"/>
      <point x="1299" y="485"/>
      <point x="1299" y="476"/>
      <point x="1299" y="462" type="curve" smooth="yes"/>
      <point x="1299" y="235"/>
      <point x="1049" y="128"/>
    </contour>
    <contour>
      <point x="890" y="1006" type="move" name="top"/>
    </contour>
    <contour>
      <point x="1602" y="10" type="move" name="ogonek"/>
    </contour>
  </outline>
</glyph>
<glyph name="c" format="1">
  <advance width="1627"/>
  <unicode hex="0063"/>
  <outline>
    <contour>
      <point x="918" y="-41" type="curve" smooth="yes"/>
      <point x="1081" y="-41"/>
      <point x="1284" y="-4"/>
      <point x="1422" y="58" type="curve"/>
      <point x="1465" y="78"/>
      <point x="1469" y="103"/>
      <point x="1459" y="134" type="curve" smooth="yes"/>
      <point x="1450" y="166"/>
      <point x="1436" y="198"/>
      <point x="1430" y="215" type="curve" smooth="yes"/>
      <point x="1421" y="242"/>
      <point x="1394" y="254"/>
      <point x="1352" y="237" type="curve" smooth="yes"/>
      <point x="1273" y="205"/>
      <point x="1120" y="153"/>
      <point x="958" y="153" type="curve" smooth="yes"/>
      <point x="699" y="153"/>
      <point x="467" y="265"/>
      <point x="468" y="506" type="curve" smooth="yes"/>
      <point x="467" y="759"/>
      <point x="712" y="857"/>
      <point x="940" y="857" type="curve" smooth="yes"/>
      <point x="1126" y="857"/>
      <point x="1272" y="809"/>
      <point x="1363" y="766" type="curve" smooth="yes"/>
      <point x="1393" y="753"/>
      <point x="1428" y="744"/>
      <point x="1445" y="786" type="curve" smooth="yes"/>
      <point x="1449" y="798"/>
      <point x="1472" y="852"/>
      <point x="1476" y="864" type="curve" smooth="yes"/>
      <point x="1487" y="891"/>
      <point x="1478" y="920"/>
      <point x="1445" y="938" type="curve" smooth="yes"/>
      <point x="1301" y="1014"/>
      <point x="1095" y="1053"/>
      <point x="915" y="1053" type="curve" smooth="yes"/>
      <point x="556" y="1053"/>
      <point x="128" y="911"/>
      <point x="128" y="506" type="curve" smooth="yes"/>
      <point x="128" y="102"/>
      <point x="557" y="-41"/>
    </contour>
    <contour>
      <point x="814" y="1006" type="move" name="top"/>
    </contour>
    <contour>
      <point x="814" y="0" type="move" name="bottom"/>
    </contour>
  </outline>
</glyph>
<glyph name="d" format="1">
  <advance width="1797"/>
  <unicode hex="0064"/>
  <outline>
    <contour>
      <point x="816" y="-41" type="curve" smooth="yes"/>
      <point x="1031" y="-41"/>
      <point x="1260" y="42"/>
      <point x="1383" y="202" type="curve" smooth="yes"/>
      <point x="1387" y="208"/>
      <point x="1392" y="213"/>
      <point x="1397" y="217" type="curve" smooth="yes"/>
      <point x="1400" y="215"/>
      <point x="1406" y="205"/>
      <point x="1408" y="201" type="curve" smooth="yes"/>
      <point x="1417" y="173"/>
      <point x="1452" y="98"/>
      <point x="1466" y="69" type="curve" smooth="yes"/>
      <point x="1487" y="29"/>
      <point x="1516" y="0"/>
      <point x="1548" y="0" type="curve" smooth="yes"/>
      <point x="1577" y="0" type="line" smooth="yes"/>
      <point x="1620" y="0"/>
      <point x="1637" y="27"/>
      <point x="1637" y="70" type="curve" smooth="yes"/>
      <point x="1637" y="1364" type="line" smooth="yes"/>
      <point x="1637" y="1407"/>
      <point x="1610" y="1434"/>
      <point x="1567" y="1434" type="curve" smooth="yes"/>
      <point x="1375" y="1434" type="line" smooth="yes"/>
      <point x="1332" y="1434"/>
      <point x="1306" y="1407"/>
      <point x="1306" y="1364" type="curve" smooth="yes"/>
      <point x="1306" y="889" type="line" smooth="yes"/>
      <point x="1306" y="885"/>
      <point x="1303" y="870"/>
      <point x="1301" y="870" type="curve" smooth="yes"/>
      <point x="1298" y="873"/>
      <point x="1294" y="876"/>
      <point x="1290" y="880" type="curve" smooth="yes"/>
      <point x="1181" y="995"/>
      <point x="1010" y="1053"/>
      <point x="817" y="1053" type="curve" smooth="yes"/>
      <point x="488" y="1053"/>
      <point x="130" y="904"/>
      <point x="130" y="502" type="curve" smooth="yes"/>
      <point x="130" y="115"/>
      <point x="499" y="-41"/>
    </contour>
    <contour>
      <point x="886" y="159" type="curve" smooth="yes"/>
      <point x="650" y="159"/>
      <point x="470" y="285"/>
      <point x="470" y="507" type="curve" smooth="yes"/>
      <point x="470" y="745"/>
      <point x="661" y="858"/>
      <point x="885" y="858" type="curve" smooth="yes"/>
      <point x="1114" y="858"/>
      <point x="1307" y="743"/>
      <point x="1306" y="507" type="curve" smooth="yes"/>
      <point x="1307" y="287"/>
      <point x="1126" y="159"/>
    </contour>
    <contour>
      <point x="899" y="503" type="move" name="center"/>
    </contour>
  </outline>
</glyph>
<glyph name="e" format="1">
  <advance width="1703"/>
  <unicode hex="0065"/>
  <outline>
    <contour>
      <point x="914" y="-42" type="curve" smooth="yes"/>
      <point x="1082" y="-42"/>
      <point x="1336" y="6"/>
      <point x="1470" y="62" type="curve"/>
      <point x="1513" y="80"/>
      <point x="1515" y="110"/>
      <point x="1505" y="141" type="curve" smooth="yes"/>
      <point x="1495" y="172"/>
      <point x="1488" y="191"/>
      <point x="1483" y="208" type="curve" smooth="yes"/>
      <point x="1474" y="235"/>
      <point x="1446" y="245"/>
      <point x="1405" y="229" type="curve" smooth="yes"/>
      <point x="1325" y="197"/>
      <point x="1187" y="145"/>
      <point x="959" y="145" type="curve" smooth="yes"/>
      <point x="613" y="145"/>
      <point x="476" y="296"/>
      <point x="475" y="433" type="curve" smooth="yes"/>
      <point x="475" y="443"/>
      <point x="482" y="450"/>
      <point x="494" y="450" type="curve" smooth="yes"/>
      <point x="1462" y="450" type="line" smooth="yes"/>
      <point x="1547" y="450"/>
      <point x="1567" y="503"/>
      <point x="1569" y="533" type="curve" smooth="yes"/>
      <point x="1569" y="536"/>
      <point x="1569" y="577"/>
      <point x="1569" y="581" type="curve" smooth="yes"/>
      <point x="1534" y="853"/>
      <point x="1295" y="1053"/>
      <point x="886" y="1053" type="curve" smooth="yes"/>
      <point x="540" y="1053"/>
      <point x="131" y="927"/>
      <point x="131" y="504" type="curve" smooth="yes"/>
      <point x="131" y="69"/>
      <point x="548" y="-42"/>
    </contour>
    <contour>
      <point x="488" y="599" type="line"/>
      <point x="479" y="599"/>
      <point x="478" y="607"/>
      <point x="478" y="614" type="curve" smooth="yes"/>
      <point x="505" y="791"/>
      <point x="696" y="877"/>
      <point x="889" y="877" type="curve" smooth="yes"/>
      <point x="1161" y="877"/>
      <point x="1240" y="738"/>
      <point x="1278" y="609" type="curve"/>
      <point x="1278" y="605"/>
      <point x="1279" y="599"/>
      <point x="1275" y="599" type="curve" smooth="yes"/>
    </contour>
    <contour>
      <point x="851" y="1006" type="move" name="top"/>
    </contour>
    <contour>
      <point x="1532" y="10" type="move" name="ogonek"/>
    </contour>
    <contour>
      <point x="851" y="0" type="move" name="bottom"/>
    </contour>
  </outline>
</glyph>
<glyph name="j" format="1">
  <advance width="914"/>
  <unicode hex="006A"/>
  <outline>
    <contour>
      <point x="245" y="-402" type="curve"/>
      <point x="410" y="-395"/>
      <point x="561" y="-324"/>
      <point x="562" y="-147" type="curve" smooth="yes"/>
      <point x="700" y="-147"/>
      <point x="753" y="457"/>
      <point x="754" y="563" type="curve" smooth="yes"/>
      <point x="754" y="589"/>
      <point x="738" y="979"/>
      <point x="714" y="979" type="curve" smooth="yes"/>
      <point x="714" y="996"/>
      <point x="553" y="1006"/>
      <point x="533" y="1006" type="curve" smooth="yes"/>
      <point x="510" y="1006"/>
      <point x="451" y="989"/>
      <point x="451" y="963" type="curve" smooth="yes"/>
      <point x="432" y="963"/>
      <point x="421" y="420"/>
      <point x="421" y="403" type="curve" smooth="yes"/>
      <point x="421" y="313"/>
      <point x="389" y="-66"/>
      <point x="313" y="-66" type="curve" smooth="yes"/>
      <point x="302" y="-140"/>
      <point x="258" y="-183"/>
      <point x="173" y="-182" type="curve" smooth="yes"/>
      <point x="149" y="-180"/>
      <point x="80" y="-195"/>
      <point x="80" y="-221" type="curve" smooth="yes"/>
      <point x="61" y="-221"/>
      <point x="53" y="-288"/>
      <point x="53" y="-306" type="curve" smooth="yes"/>
      <point x="53" y="-331"/>
      <point x="67" y="-369"/>
      <point x="91" y="-371" type="curve" smooth="yes"/>
      <point x="120" y="-392"/>
      <point x="190" y="-406"/>
    </contour>
    <contour>
      <point x="486" y="1171" type="curve" smooth="yes"/>
      <point x="678" y="1171" type="line" smooth="yes"/>
      <point x="721" y="1171"/>
      <point x="748" y="1198"/>
      <point x="748" y="1241" type="curve" smooth="yes"/>
      <point x="748" y="1378" type="line" smooth="yes"/>
      <point x="748" y="1421"/>
      <point x="721" y="1448"/>
      <point x="678" y="1448" type="curve" smooth="yes"/>
      <point x="486" y="1448" type="line" smooth="yes"/>
      <point x="443" y="1448"/>
      <point x="416" y="1421"/>
      <point x="416" y="1378" type="curve" smooth="yes"/>
      <point x="416" y="1241" type="line" smooth="yes"/>
      <point x="416" y="1198"/>
      <point x="443" y="1171"/>
    </contour>
  </outline>
</glyph>
<glyph name="p" format="1">
  <advance width="1792"/>
  <unicode hex="0070"/>
  <outline>
    <contour>
      <point x="221" y="-389" type="curve" smooth="yes"/>
      <point x="416" y="-389" type="line" smooth="yes"/>
      <point x="459" y="-389"/>
      <point x="485" y="-363"/>
      <point x="485" y="-320" type="curve" smooth="yes"/>
      <point x="485" y="117" type="line" smooth="yes"/>
      <point x="485" y="125"/>
      <point x="489" y="129"/>
      <point x="493" y="129" type="curve" smooth="yes"/>
      <point x="496" y="129"/>
      <point x="499" y="127"/>
      <point x="501" y="124" type="curve" smooth="yes"/>
      <point x="611" y="13"/>
      <point x="782" y="-42"/>
      <point x="974" y="-42" type="curve" smooth="yes"/>
      <point x="1304" y="-42"/>
      <point x="1662" y="106"/>
      <point x="1662" y="509" type="curve" smooth="yes"/>
      <point x="1662" y="897"/>
      <point x="1293" y="1053"/>
      <point x="975" y="1053" type="curve" smooth="yes"/>
      <point x="764" y="1053"/>
      <point x="538" y="969"/>
      <point x="417" y="807" type="curve" smooth="yes"/>
      <point x="412" y="803"/>
      <point x="407" y="797"/>
      <point x="404" y="797" type="curve" smooth="yes"/>
      <point x="398" y="797"/>
      <point x="394" y="804"/>
      <point x="390" y="811" type="curve" smooth="yes"/>
      <point x="383" y="834"/>
      <point x="352" y="896"/>
      <point x="343" y="922" type="curve" smooth="yes"/>
      <point x="319" y="985"/>
      <point x="288" y="1007"/>
      <point x="253" y="1007" type="curve" smooth="yes"/>
      <point x="213" y="1007" type="line" smooth="yes"/>
      <point x="170" y="1007"/>
      <point x="153" y="980"/>
      <point x="153" y="937" type="curve" smooth="yes"/>
      <point x="153" y="-320" type="line" smooth="yes"/>
      <point x="153" y="-363"/>
      <point x="178" y="-389"/>
    </contour>
    <contour>
      <point x="906" y="147" type="curve" smooth="yes"/>
      <point x="676" y="147"/>
      <point x="485" y="267"/>
      <point x="485" y="504" type="curve" smooth="yes"/>
      <point x="485" y="724"/>
      <point x="665" y="858"/>
      <point x="906" y="858" type="curve" smooth="yes"/>
      <point x="1141" y="858"/>
      <point x="1322" y="726"/>
      <point x="1322" y="504" type="curve" smooth="yes"/>
      <point x="1322" y="265"/>
      <point x="1129" y="147"/>
    </contour>
  </outline>
</glyph>
<glyph name="s" format="1">
  <advance width="1633"/>
  <unicode hex="0073"/>
  <outline>
    <contour>
      <point x="834" y="-41" type="curve" smooth="yes"/>
      <point x="1318" y="-41"/>
      <point x="1520" y="72"/>
      <point x="1520" y="307" type="curve" smooth="yes"/>
      <point x="1520" y="591"/>
      <point x="1242" y="610"/>
      <point x="873" y="634" type="curve" smooth="yes"/>
      <point x="497" y="659"/>
      <point x="441" y="665"/>
      <point x="441" y="747" type="curve" smooth="yes"/>
      <point x="441" y="829"/>
      <point x="561" y="863"/>
      <point x="855" y="863" type="curve" smooth="yes"/>
      <point x="1064" y="863"/>
      <point x="1170" y="837"/>
      <point x="1282" y="801" type="curve" smooth="yes"/>
      <point x="1322" y="788"/>
      <point x="1369" y="796"/>
      <point x="1386" y="832" type="curve"/>
      <point x="1409" y="883" type="line"/>
      <point x="1425" y="915"/>
      <point x="1407" y="955"/>
      <point x="1373" y="968" type="curve" smooth="yes"/>
      <point x="1206" y="1032"/>
      <point x="1039" y="1053"/>
      <point x="809" y="1053" type="curve" smooth="yes"/>
      <point x="572" y="1053"/>
      <point x="151" y="1029"/>
      <point x="151" y="723" type="curve" smooth="yes"/>
      <point x="151" y="479"/>
      <point x="459" y="443"/>
      <point x="807" y="426" type="curve" smooth="yes"/>
      <point x="1189" y="410"/>
      <point x="1232" y="382"/>
      <point x="1232" y="295" type="curve" smooth="yes"/>
      <point x="1232" y="202"/>
      <point x="1155" y="152"/>
      <point x="878" y="152" type="curve" smooth="yes"/>
      <point x="642" y="152"/>
      <point x="469" y="177"/>
      <point x="281" y="243" type="curve" smooth="yes"/>
      <point x="240" y="258"/>
      <point x="201" y="240"/>
      <point x="182" y="199" type="curve" smooth="yes"/>
      <point x="160" y="152" type="line" smooth="yes"/>
      <point x="145" y="118"/>
      <point x="164" y="72"/>
      <point x="197" y="59" type="curve" smooth="yes"/>
      <point x="388" y="-18"/>
      <point x="641" y="-41"/>
    </contour>
    <contour>
      <point x="829" y="1006" type="move" name="top"/>
    </contour>
    <contour>
      <point x="829" y="0" type="move" name="bottom"/>
    </contour>
  </outline>
</glyph>
<glyph name="t" format="1">
  <advance width="1340"/>
  <unicode hex="0074"/>
  <outline>
    <contour>
      <point x="843" y="-41" type="curve" smooth="yes"/>
      <point x="959" y="-41"/>
      <point x="1059" y="-26"/>
      <point x="1144" y="3" type="curve" smooth="yes"/>
      <point x="1185" y="17"/>
      <point x="1210" y="40"/>
      <point x="1201" y="82" type="curve" smooth="yes"/>
      <point x="1195" y="153" type="line" smooth="yes"/>
      <point x="1188" y="190"/>
      <point x="1173" y="213"/>
      <point x="1121" y="197" type="curve" smooth="yes"/>
      <point x="1057" y="178"/>
      <point x="980" y="161"/>
      <point x="906" y="161" type="curve" smooth="yes"/>
      <point x="760" y="161"/>
      <point x="673" y="212"/>
      <point x="673" y="350" type="curve" smooth="yes"/>
      <point x="673" y="800" type="line" smooth="yes"/>
      <point x="673" y="820"/>
      <point x="683" y="830"/>
      <point x="703" y="830" type="curve" smooth="yes"/>
      <point x="1082" y="830" type="line" smooth="yes"/>
      <point x="1125" y="830"/>
      <point x="1151" y="857"/>
      <point x="1151" y="900" type="curve" smooth="yes"/>
      <point x="1151" y="936" type="line" smooth="yes"/>
      <point x="1151" y="979"/>
      <point x="1125" y="1006"/>
      <point x="1082" y="1006" type="curve" smooth="yes"/>
      <point x="703" y="1006" type="line" smooth="yes"/>
      <point x="683" y="1006"/>
      <point x="673" y="1016"/>
      <point x="673" y="1036" type="curve" smooth="yes"/>
      <point x="673" y="1405" type="line" smooth="yes"/>
      <point x="673" y="1448"/>
      <point x="646" y="1475"/>
      <point x="603" y="1475" type="curve" smooth="yes"/>
      <point x="425" y="1475" type="line" smooth="yes"/>
      <point x="382" y="1475"/>
      <point x="361" y="1448"/>
      <point x="356" y="1405" type="curve"/>
      <point x="333" y="1036" type="line"/>
      <point x="333" y="1016"/>
      <point x="323" y="1006"/>
      <point x="303" y="1006" type="curve" smooth="yes"/>
      <point x="175" y="1006" type="line" smooth="yes"/>
      <point x="132" y="1006"/>
      <point x="105" y="979"/>
      <point x="105" y="936" type="curve" smooth="yes"/>
      <point x="105" y="900" type="line" smooth="yes"/>
      <point x="105" y="857"/>
      <point x="132" y="830"/>
      <point x="175" y="830" type="curve" smooth="yes"/>
      <point x="303" y="830" type="line" smooth="yes"/>
      <point x="323" y="830"/>
      <point x="333" y="820"/>
      <point x="333" y="800" type="curve" smooth="yes"/>
      <point x="333" y="385" type="line" smooth="yes"/>
      <point x="333" y="100"/>
      <point x="536" y="-41"/>
    </contour>
    <contour>
      <point x="662" y="503" type="move" name="center"/>
    </contour>
    <contour>
      <point x="662" y="0" type="move" name="bottom"/>
    </contour>
  </outline>
</glyph>
<glyph name="w" format="1">
  <advance width="2566"/>
  <unicode hex="0077"/>
  <outline>
    <contour>
      <point x="650" y="0" type="curve" smooth="yes"/>
      <point x="895" y="0" type="line" smooth="yes"/>
      <point x="936" y="0"/>
      <point x="980" y="25"/>
      <point x="998" y="69" type="curve" smooth="yes"/>
      <point x="1268" y="675" type="line" smooth="yes"/>
      <point x="1269" y="678"/>
      <point x="1274" y="682"/>
      <point x="1279" y="682" type="curve" smooth="yes"/>
      <point x="1283" y="682"/>
      <point x="1286" y="681"/>
      <point x="1289" y="675" type="curve" smooth="yes"/>
      <point x="1577" y="69" type="line" smooth="yes"/>
      <point x="1596" y="28"/>
      <point x="1633" y="0"/>
      <point x="1673" y="0" type="curve" smooth="yes"/>
      <point x="1920" y="0" type="line" smooth="yes"/>
      <point x="1962" y="0"/>
      <point x="2007" y="25"/>
      <point x="2026" y="68" type="curve" smooth="yes"/>
      <point x="2431" y="938" type="line" smooth="yes"/>
      <point x="2441" y="953"/>
      <point x="2445" y="964"/>
      <point x="2445" y="974" type="curve" smooth="yes"/>
      <point x="2445" y="993"/>
      <point x="2430" y="1006"/>
      <point x="2403" y="1006" type="curve" smooth="yes"/>
      <point x="2198" y="1006" type="line" smooth="yes"/>
      <point x="2154" y="1006"/>
      <point x="2122" y="983"/>
      <point x="2103" y="937" type="curve" smooth="yes"/>
      <point x="1825" y="258" type="line" smooth="yes"/>
      <point x="1824" y="254"/>
      <point x="1818" y="250"/>
      <point x="1812" y="250" type="curve" smooth="yes"/>
      <point x="1808" y="250"/>
      <point x="1804" y="252"/>
      <point x="1802" y="258" type="curve" smooth="yes"/>
      <point x="1475" y="937" type="line" smooth="yes"/>
      <point x="1455" y="979"/>
      <point x="1431" y="1006"/>
      <point x="1392" y="1006" type="curve" smooth="yes"/>
      <point x="1196" y="1006" type="line" smooth="yes"/>
      <point x="1152" y="1006"/>
      <point x="1120" y="983"/>
      <point x="1101" y="937" type="curve" smooth="yes"/>
      <point x="801" y="258" type="line" smooth="yes"/>
      <point x="799" y="253"/>
      <point x="795" y="249"/>
      <point x="790" y="249" type="curve" smooth="yes"/>
      <point x="786" y="249"/>
      <point x="782" y="252"/>
      <point x="779" y="258" type="curve" smooth="yes"/>
      <point x="475" y="937" type="line" smooth="yes"/>
      <point x="456" y="981"/>
      <point x="432" y="1006"/>
      <point x="388" y="1006" type="curve" smooth="yes"/>
      <point x="163" y="1006" type="line" smooth="yes"/>
      <point x="134" y="1006"/>
      <point x="118" y="992"/>
      <point x="118" y="970" type="curve" smooth="yes"/>
      <point x="118" y="961"/>
      <point x="121" y="950"/>
      <point x="127" y="938" type="curve" smooth="yes"/>
      <point x="551" y="69" type="line" smooth="yes"/>
      <point x="572" y="28"/>
      <point x="608" y="0"/>
    </contour>
    <contour>
      <point x="1284" y="1006" type="move" name="top"/>
    </contour>
  </outline>
</glyph>
<glyph name="x" format="1">
  <advance width="1867"/>
  <unicode hex="0078"/>
  <outline>
    <contour>
      <point x="165" y="0" type="curve" smooth="yes"/>
      <point x="413" y="0" type="line" smooth="yes"/>
      <point x="460" y="0"/>
      <point x="514" y="18"/>
      <point x="551" y="47" type="curve" smooth="yes"/>
      <point x="604" y="86"/>
      <point x="765" y="213"/>
      <point x="897" y="315" type="curve" smooth="yes"/>
      <point x="907" y="321"/>
      <point x="916" y="322"/>
      <point x="922" y="322" type="curve" smooth="yes"/>
      <point x="931" y="322"/>
      <point x="936" y="319"/>
      <point x="941" y="314" type="curve" smooth="yes"/>
      <point x="1073" y="212"/>
      <point x="1228" y="84"/>
      <point x="1271" y="50" type="curve" smooth="yes"/>
      <point x="1306" y="21"/>
      <point x="1359" y="0"/>
      <point x="1406" y="0" type="curve" smooth="yes"/>
      <point x="1709" y="0" type="line" smooth="yes"/>
      <point x="1726" y="0"/>
      <point x="1737" y="14"/>
      <point x="1737" y="28" type="curve" smooth="yes"/>
      <point x="1737" y="35"/>
      <point x="1734" y="43"/>
      <point x="1727" y="48" type="curve" smooth="yes"/>
      <point x="1570" y="168"/>
      <point x="1267" y="423"/>
      <point x="1154" y="510" type="curve" smooth="yes"/>
      <point x="1149" y="516"/>
      <point x="1147" y="522"/>
      <point x="1147" y="527" type="curve" smooth="yes"/>
      <point x="1147" y="532"/>
      <point x="1150" y="536"/>
      <point x="1155" y="539" type="curve" smooth="yes"/>
      <point x="1300" y="653"/>
      <point x="1585" y="880"/>
      <point x="1688" y="960" type="curve" smooth="yes"/>
      <point x="1696" y="966"/>
      <point x="1699" y="973"/>
      <point x="1699" y="981" type="curve" smooth="yes"/>
      <point x="1699" y="994"/>
      <point x="1689" y="1006"/>
      <point x="1673" y="1006" type="curve" smooth="yes"/>
      <point x="1429" y="1006" type="line" smooth="yes"/>
      <point x="1382" y="1006"/>
      <point x="1351" y="987"/>
      <point x="1314" y="958" type="curve"/>
      <point x="1265" y="920"/>
      <point x="1114" y="799"/>
      <point x="969" y="690" type="curve" smooth="yes"/>
      <point x="962" y="686"/>
      <point x="956" y="685"/>
      <point x="951" y="685" type="curve" smooth="yes"/>
      <point x="944" y="685"/>
      <point x="939" y="687"/>
      <point x="936" y="690" type="curve" smooth="yes"/>
      <point x="786" y="806"/>
      <point x="651" y="916"/>
      <point x="600" y="956" type="curve" smooth="yes"/>
      <point x="563" y="986"/>
      <point x="529" y="1006"/>
      <point x="482" y="1006" type="curve" smooth="yes"/>
      <point x="175" y="1006" type="line" smooth="yes"/>
      <point x="158" y="1006"/>
      <point x="147" y="993"/>
      <point x="147" y="979" type="curve" smooth="yes"/>
      <point x="147" y="971"/>
      <point x="150" y="963"/>
      <point x="157" y="958" type="curve" smooth="yes"/>
      <point x="215" y="912"/>
      <point x="541" y="640"/>
      <point x="711" y="506" type="curve" smooth="yes"/>
      <point x="715" y="501"/>
      <point x="717" y="495"/>
      <point x="717" y="491" type="curve" smooth="yes"/>
      <point x="717" y="485"/>
      <point x="714" y="483"/>
      <point x="711" y="479" type="curve" smooth="yes"/>
      <point x="579" y="379"/>
      <point x="286" y="149"/>
      <point x="149" y="46" type="curve" smooth="yes"/>
      <point x="142" y="41"/>
      <point x="139" y="33"/>
      <point x="139" y="26" type="curve" smooth="yes"/>
      <point x="139" y="13"/>
      <point x="149" y="0"/>
    </contour>
  </outline>
</glyph>
<glyph name="z" format="1">
  <advance width="1528"/>
  <unicode hex="007A"/>
  <outline>
    <contour>
      <point x="203" y="0" type="curve" smooth="yes"/>
      <point x="1353" y="0" type="line" smooth="yes"/>
      <point x="1373" y="0"/>
      <point x="1390" y="17"/>
      <point x="1390" y="37" type="curve" smooth="yes"/>
      <point x="1390" y="156" type="line" smooth="yes"/>
      <point x="1390" y="176"/>
      <point x="1373" y="193"/>
      <point x="1353" y="193" type="curve" smooth="yes"/>
      <point x="591" y="193" type="line"/>
      <point x="1322" y="777" type="line" smooth="yes"/>
      <point x="1339" y="792"/>
      <point x="1351" y="815"/>
      <point x="1351" y="838" type="curve" smooth="yes"/>
      <point x="1351" y="969" type="line" smooth="yes"/>
      <point x="1351" y="989"/>
      <point x="1312" y="1006"/>
      <point x="1292" y="1006" type="curve" smooth="yes"/>
      <point x="185" y="1006" type="line" smooth="yes"/>
      <point x="165" y="1006"/>
      <point x="148" y="989"/>
      <point x="148" y="969" type="curve" smooth="yes"/>
      <point x="148" y="850" type="line" smooth="yes"/>
      <point x="148" y="830"/>
      <point x="165" y="813"/>
      <point x="185" y="813" type="curve" smooth="yes"/>
      <point x="940" y="813" type="line"/>
      <point x="173" y="216" type="line" smooth="yes"/>
      <point x="156" y="204"/>
      <point x="144" y="179"/>
      <point x="144" y="156" type="curve" smooth="yes"/>
      <point x="144" y="37" type="line" smooth="yes"/>
      <point x="144" y="17"/>
      <point x="183" y="0"/>
    </contour>
    <contour>
      <point x="764" y="1006" type="move" name="top"/>
    </contour>
  </outline>
</glyph>
<glyph name="dieresis" format="1">
  <advance width="996"/>
  <unicode hex="00A8"/>
  <outline>
    <contour>
      <point x="256" y="735" type="curve" smooth="yes"/>
      <point x="389" y="735" type="line" smooth="yes"/>
      <point x="432" y="735"/>
      <point x="466" y="769"/>
      <point x="466" y="812" type="curve" smooth="yes"/>
      <point x="466" y="920" type="line" smooth="yes"/>
      <point x="466" y="963"/>
      <point x="432" y="997"/>
      <point x="389" y="997" type="curve" smooth="yes"/>
      <point x="256" y="997" type="line" smooth="yes"/>
      <point x="213" y="997"/>
      <point x="179" y="963"/>
      <point x="179" y="920" type="curve" smooth="yes"/>
      <point x="179" y="812" type="line" smooth="yes"/>
      <point x="179" y="769"/>
      <point x="213" y="735"/>
    </contour>
    <contour>
      <point x="878" y="735" type="curve" smooth="yes"/>
      <point x="1010" y="735" type="line" smooth="yes"/>
      <point x="1053" y="735"/>
      <point x="1087" y="769"/>
      <point x="1087" y="812" type="curve" smooth="yes"/>
      <point x="1087" y="920" type="line" smooth="yes"/>
      <point x="1087" y="963"/>
      <point x="1053" y="997"/>
      <point x="1010" y="997" type="curve" smooth="yes"/>
      <point x="878" y="997" type="line" smooth="yes"/>
      <point x="835" y="997"/>
      <point x="801" y="963"/>
      <point x="801" y="920" type="curve" smooth="yes"/>
      <point x="801" y="812" type="line" smooth="yes"/>
      <point x="801" y="769"/>
      <point x="835" y="735"/>
    </contour>
    <contour>
      <point x="633" y="1006" type="move" name="_top"/>
    </contour>
  </outline>
</glyph>
<glyph name="ordfeminine" format="1">
  <advance width="1871"/>
  <unicode hex="00AA"/>
  <outline>
    <contour>
      <point x="522" y="531" type="curve" smooth="yes"/>
      <point x="820" y="531"/>
      <point x="1011" y="633"/>
      <point x="1083" y="767" type="curve" smooth="yes"/>
      <point x="1087" y="773"/>
      <point x="1091" y="789"/>
      <point x="1095" y="789" type="curve" smooth="yes"/>
      <point x="1100" y="789"/>
      <point x="1102" y="778"/>
      <point x="1105" y="763" type="curve" smooth="yes"/>
      <point x="1110" y="746"/>
      <point x="1125" y="695"/>
      <point x="1135" y="655" type="curve" smooth="yes"/>
      <point x="1148" y="599"/>
      <point x="1167" y="568"/>
      <point x="1202" y="568" type="curve" smooth="yes"/>
      <point x="1251" y="568" type="line" smooth="yes"/>
      <point x="1281" y="568"/>
      <point x="1298" y="594"/>
      <point x="1298" y="640" type="curve" smooth="yes"/>
      <point x="1298" y="1074" type="line" smooth="yes"/>
      <point x="1298" y="1363"/>
      <point x="1097" y="1473"/>
      <point x="669" y="1473" type="curve" smooth="yes"/>
      <point x="300" y="1473"/>
      <point x="122" y="1417"/>
      <point x="50" y="1296" type="curve" smooth="yes"/>
      <point x="45" y="1286"/>
      <point x="41" y="1272"/>
      <point x="41" y="1258" type="curve" smooth="yes"/>
      <point x="41" y="1243"/>
      <point x="54" y="1227"/>
      <point x="69" y="1225" type="curve" smooth="yes"/>
      <point x="230" y="1206" type="line" smooth="yes"/>
      <point x="238" y="1205"/>
      <point x="241" y="1204"/>
      <point x="246" y="1204" type="curve" smooth="yes"/>
      <point x="264" y="1204"/>
      <point x="288" y="1224"/>
      <point x="307" y="1243" type="curve" smooth="yes"/>
      <point x="381" y="1315"/>
      <point x="600" y="1326"/>
      <point x="672" y="1326" type="curve" smooth="yes"/>
      <point x="938" y="1326"/>
      <point x="1004" y="1255"/>
      <point x="1004" y="1131" type="curve" smooth="yes"/>
      <point x="1004" y="1118" type="line" smooth="yes"/>
      <point x="1004" y="1086"/>
      <point x="6" y="1139"/>
      <point x="10" y="772" type="curve" smooth="yes"/>
      <point x="13" y="620"/>
      <point x="194" y="531"/>
    </contour>
    <contour>
      <point x="552" y="677" type="curve" smooth="yes"/>
      <point x="364" y="677"/>
      <point x="301" y="717"/>
      <point x="299" y="789" type="curve" smooth="yes"/>
      <point x="297" y="892"/>
      <point x="442" y="943"/>
      <point x="875" y="978" type="curve"/>
      <point x="879" y="979"/>
      <point x="991" y="984"/>
      <point x="994" y="984" type="curve" smooth="yes"/>
      <point x="1008" y="984"/>
      <point x="1008" y="976"/>
      <point x="1008" y="964" type="curve" smooth="yes"/>
      <point x="1008" y="769"/>
      <point x="799" y="677"/>
    </contour>
  </outline>
</glyph>
<glyph name="uni00AD" format="1">
  <advance width="1024"/>
  <unicode hex="00AD"/>
  <outline>
    <contour>
      <point x="127" y="449" type="line"/>
      <point x="896" y="449" type="line"/>
      <point x="896" y="709" type="line"/>
      <point x="127" y="709" type="line"/>
    </contour>
  </outline>
</glyph>
<glyph name="degree" format="1">
  <advance width="1333"/>
  <unicode hex="00B0"/>
  <outline>
    <contour>
      <point x="667" y="261" type="curve" smooth="yes"/>
      <point x="388" y="261"/>
      <point x="283" y="466"/>
      <point x="283" y="644" type="curve" smooth="yes"/>
      <point x="283" y="831"/>
      <point x="388" y="1031"/>
      <point x="667" y="1031" type="curve" smooth="yes"/>
      <point x="947" y="1031"/>
      <point x="1052" y="831"/>
      <point x="1052" y="644" type="curve" smooth="yes"/>
      <point x="1052" y="466"/>
      <point x="947" y="261"/>
    </contour>
    <contour>
      <point x="666" y="129" type="curve" smooth="yes"/>
      <point x="1020" y="129"/>
      <point x="1201" y="372"/>
      <point x="1201" y="646" type="curve" smooth="yes"/>
      <point x="1201" y="921"/>
      <point x="1020" y="1165"/>
      <point x="666" y="1165" type="curve" smooth="yes"/>
      <point x="312" y="1165"/>
      <point x="132" y="921"/>
      <point x="132" y="646" type="curve" smooth="yes"/>
      <point x="132" y="372"/>
      <point x="312" y="129"/>
    </contour>
  </outline>
</glyph>
<glyph name="paragraph" format="1">
  <advance width="1423"/>
  <unicode hex="00B6"/>
  <outline>
    <contour>
      <point x="680" y="-1" type="curve" smooth="yes"/>
      <point x="782" y="-1" type="line" smooth="yes"/>
      <point x="825" y="-1"/>
      <point x="845" y="33"/>
      <point x="845" y="76" type="curve" smooth="yes"/>
      <point x="845" y="730" type="line"/>
      <point x="1018" y="730" type="line" smooth="yes"/>
      <point x="1028" y="730"/>
      <point x="1037" y="721"/>
      <point x="1037" y="709" type="curve" smooth="yes"/>
      <point x="1037" y="76" type="line" smooth="yes"/>
      <point x="1037" y="33"/>
      <point x="1056" y="-1"/>
      <point x="1099" y="-1" type="curve" smooth="yes"/>
      <point x="1201" y="-1" type="line" smooth="yes"/>
      <point x="1244" y="-1"/>
      <point x="1264" y="33"/>
      <point x="1264" y="76" type="curve" smooth="yes"/>
      <point x="1264" y="1334" type="line" smooth="yes"/>
      <point x="1264" y="1377"/>
      <point x="1238" y="1406"/>
      <point x="1195" y="1412" type="curve" smooth="yes"/>
      <point x="1124" y="1421"/>
      <point x="937" y="1438"/>
      <point x="692" y="1438" type="curve" smooth="yes"/>
      <point x="318" y="1438"/>
      <point x="122" y="1339"/>
      <point x="122" y="1091" type="curve" smooth="yes"/>
      <point x="122" y="831"/>
      <point x="302" y="730"/>
      <point x="591" y="730" type="curve" smooth="yes"/>
      <point x="618" y="730" type="line"/>
      <point x="618" y="76" type="line" smooth="yes"/>
      <point x="618" y="33"/>
      <point x="637" y="-1"/>
    </contour>
  </outline>
</glyph>
<glyph name="dcroat" format="1">
  <advance width="1797"/>
  <unicode hex="0111"/>
  <outline>
    <contour>
      <point x="816" y="-41" type="curve" smooth="yes"/>
      <point x="1030" y="-41"/>
      <point x="1257" y="42"/>
      <point x="1380" y="200" type="curve" smooth="yes"/>
      <point x="1386" y="206"/>
      <point x="1391" y="210"/>
      <point x="1396" y="212" type="curve" smooth="yes"/>
      <point x="1401" y="210"/>
      <point x="1406" y="204"/>
      <point x="1409" y="198" type="curve" smooth="yes"/>
      <point x="1419" y="169"/>
      <point x="1453" y="97"/>
      <point x="1466" y="69" type="curve" smooth="yes"/>
      <point x="1487" y="29"/>
      <point x="1516" y="0"/>
      <point x="1548" y="0" type="curve" smooth="yes"/>
      <point x="1577" y="0" type="line" smooth="yes"/>
      <point x="1620" y="0"/>
      <point x="1637" y="27"/>
      <point x="1637" y="70" type="curve" smooth="yes"/>
      <point x="1637" y="1133" type="line"/>
      <point x="1739" y="1133" type="line" smooth="yes"/>
      <point x="1778" y="1133"/>
      <point x="1796" y="1160"/>
      <point x="1796" y="1203" type="curve" smooth="yes"/>
      <point x="1796" y="1233" type="line" smooth="yes"/>
      <point x="1796" y="1276"/>
      <point x="1778" y="1303"/>
      <point x="1739" y="1303" type="curve" smooth="yes"/>
      <point x="1637" y="1303" type="line"/>
      <point x="1637" y="1364" type="line" smooth="yes"/>
      <point x="1637" y="1407"/>
      <point x="1610" y="1434"/>
      <point x="1567" y="1434" type="curve" smooth="yes"/>
      <point x="1375" y="1434" type="line" smooth="yes"/>
      <point x="1332" y="1434"/>
      <point x="1306" y="1407"/>
      <point x="1306" y="1364" type="curve" smooth="yes"/>
      <point x="1306" y="1303" type="line"/>
      <point x="1014" y="1303" type="line" smooth="yes"/>
      <point x="974" y="1303"/>
      <point x="957" y="1276"/>
      <point x="957" y="1233" type="curve" smooth="yes"/>
      <point x="957" y="1203" type="line" smooth="yes"/>
      <point x="957" y="1160"/>
      <point x="974" y="1133"/>
      <point x="1014" y="1133" type="curve" smooth="yes"/>
      <point x="1306" y="1133" type="line"/>
      <point x="1306" y="888" type="line" smooth="yes"/>
      <point x="1305" y="882"/>
      <point x="1302" y="873"/>
      <point x="1298" y="873" type="curve" smooth="yes"/>
      <point x="1296" y="875"/>
      <point x="1293" y="877"/>
      <point x="1290" y="880" type="curve" smooth="yes"/>
      <point x="1181" y="995"/>
      <point x="1010" y="1053"/>
      <point x="817" y="1053" type="curve" smooth="yes"/>
      <point x="488" y="1053"/>
      <point x="130" y="904"/>
      <point x="130" y="502" type="curve" smooth="yes"/>
      <point x="130" y="115"/>
      <point x="499" y="-41"/>
    </contour>
    <contour>
      <point x="886" y="159" type="curve" smooth="yes"/>
      <point x="650" y="159"/>
      <point x="470" y="285"/>
      <point x="470" y="507" type="curve" smooth="yes"/>
      <point x="470" y="745"/>
      <point x="661" y="858"/>
      <point x="885" y="858" type="curve" smooth="yes"/>
      <point x="1114" y="858"/>
      <point x="1307" y="743"/>
      <point x="1306" y="507" type="curve" smooth="yes"/>
      <point x="1307" y="287"/>
      <point x="1126" y="159"/>
    </contour>
  </outline>
</glyph>
<glyph name="kgreenlandic" format="1">
  <advance width="1804"/>
  <unicode hex="0138"/>
  <outline>
    <contour>
      <point x="230" y="0" type="curve" smooth="yes"/>
      <point x="422" y="0" type="line" smooth="yes"/>
      <point x="465" y="0"/>
      <point x="492" y="27"/>
      <point x="492" y="70" type="curve" smooth="yes"/>
      <point x="492" y="264" type="line" smooth="yes"/>
      <point x="492" y="279"/>
      <point x="499" y="289"/>
      <point x="509" y="297" type="curve" smooth="yes"/>
      <point x="511" y="299"/>
      <point x="689" y="409"/>
      <point x="739" y="436" type="curve" smooth="yes"/>
      <point x="745" y="441"/>
      <point x="751" y="442"/>
      <point x="756" y="442" type="curve" smooth="yes"/>
      <point x="764" y="442"/>
      <point x="770" y="437"/>
      <point x="775" y="433" type="curve" smooth="yes"/>
      <point x="1244" y="64" type="line" smooth="yes"/>
      <point x="1287" y="29"/>
      <point x="1323" y="0"/>
      <point x="1367" y="0" type="curve" smooth="yes"/>
      <point x="1641" y="0" type="line" smooth="yes"/>
      <point x="1664" y="0"/>
      <point x="1676" y="11"/>
      <point x="1676" y="25" type="curve" smooth="yes"/>
      <point x="1676" y="36"/>
      <point x="1667" y="49"/>
      <point x="1649" y="63" type="curve" smooth="yes"/>
      <point x="1023" y="556" type="line" smooth="yes"/>
      <point x="1020" y="559"/>
      <point x="1016" y="563"/>
      <point x="1016" y="568" type="curve" smooth="yes"/>
      <point x="1016" y="573"/>
      <point x="1017" y="578"/>
      <point x="1023" y="581" type="curve" smooth="yes"/>
      <point x="1589" y="946" type="line" smooth="yes"/>
      <point x="1615" y="960"/>
      <point x="1626" y="975"/>
      <point x="1626" y="987" type="curve" smooth="yes"/>
      <point x="1626" y="998"/>
      <point x="1616" y="1006"/>
      <point x="1597" y="1006" type="curve" smooth="yes"/>
      <point x="1283" y="1006" type="line" smooth="yes"/>
      <point x="1239" y="1006"/>
      <point x="1188" y="979"/>
      <point x="1136" y="946" type="curve" smooth="yes"/>
      <point x="510" y="555" type="line"/>
      <point x="507" y="553"/>
      <point x="504" y="552"/>
      <point x="502" y="552" type="curve" smooth="yes"/>
      <point x="496" y="552"/>
      <point x="492" y="557"/>
      <point x="492" y="564" type="curve" smooth="yes"/>
      <point x="492" y="936" type="line" smooth="yes"/>
      <point x="492" y="979"/>
      <point x="465" y="1006"/>
      <point x="422" y="1006" type="curve" smooth="yes"/>
      <point x="230" y="1006" type="line" smooth="yes"/>
      <point x="187" y="1006"/>
      <point x="160" y="979"/>
      <point x="160" y="936" type="curve" smooth="yes"/>
      <point x="160" y="70" type="line" smooth="yes"/>
      <point x="160" y="27"/>
      <point x="187" y="0"/>
    </contour>
  </outline>
</glyph>
<glyph name="Eng" format="1">
  <advance width="2208"/>
  <unicode hex="014A"/>
  <outline>
    <contour>
      <point x="1112" y="-544" type="curve" smooth="yes"/>
      <point x="1562" y="-542"/>
      <point x="2048" y="-454"/>
      <point x="2048" y="170" type="curve" smooth="yes"/>
      <point x="2048" y="1367" type="line" smooth="yes"/>
      <point x="2048" y="1410"/>
      <point x="2021" y="1437"/>
      <point x="1978" y="1437" type="curve" smooth="yes"/>
      <point x="1773" y="1437" type="line" smooth="yes"/>
      <point x="1730" y="1437"/>
      <point x="1703" y="1410"/>
      <point x="1703" y="1367" type="curve" smooth="yes"/>
      <point x="1703" y="557" type="line" smooth="yes"/>
      <point x="1703" y="552"/>
      <point x="1689" y="541"/>
      <point x="1687" y="544" type="curve"/>
      <point x="592" y="1415" type="line" smooth="yes"/>
      <point x="574" y="1432"/>
      <point x="548" y="1443"/>
      <point x="518" y="1443" type="curve" smooth="yes"/>
      <point x="230" y="1443" type="line" smooth="yes"/>
      <point x="187" y="1443"/>
      <point x="160" y="1416"/>
      <point x="160" y="1373" type="curve" smooth="yes"/>
      <point x="160" y="70" type="line" smooth="yes"/>
      <point x="160" y="27"/>
      <point x="187" y="0"/>
      <point x="230" y="0" type="curve" smooth="yes"/>
      <point x="438" y="0" type="line" smooth="yes"/>
      <point x="481" y="0"/>
      <point x="507" y="27"/>
      <point x="507" y="70" type="curve" smooth="yes"/>
      <point x="507" y="1049" type="line" smooth="yes"/>
      <point x="507" y="1053"/>
      <point x="522" y="1061"/>
      <point x="525" y="1059" type="curve" smooth="yes"/>
      <point x="1703" y="119" type="line"/>
      <point x="1703" y="114"/>
      <point x="1703" y="106"/>
      <point x="1703" y="102" type="curve" smooth="yes"/>
      <point x="1697" y="-262"/>
      <point x="1480" y="-300"/>
      <point x="1112" y="-300" type="curve" smooth="yes"/>
      <point x="1097" y="-300"/>
      <point x="1079" y="-315"/>
      <point x="1079" y="-350" type="curve" smooth="yes"/>
      <point x="1079" y="-495" type="line" smooth="yes"/>
      <point x="1079" y="-525"/>
      <point x="1096" y="-544"/>
    </contour>
  </outline>
</glyph>
<glyph name="eng" format="1">
  <advance width="1700"/>
  <unicode hex="014B"/>
  <outline>
    <contour>
      <point x="917" y="-398" type="curve" smooth="yes"/>
      <point x="946" y="-402"/>
      <point x="1049" y="-406"/>
      <point x="1086" y="-402" type="curve"/>
      <point x="1388" y="-395"/>
      <point x="1551" y="-275"/>
      <point x="1553" y="8" type="curve" smooth="yes"/>
      <point x="1553" y="540" type="line" smooth="yes"/>
      <point x="1553" y="886"/>
      <point x="1318" y="1053"/>
      <point x="969" y="1053" type="curve" smooth="yes"/>
      <point x="764" y="1053"/>
      <point x="562" y="982"/>
      <point x="432" y="821" type="curve" smooth="yes"/>
      <point x="426" y="814"/>
      <point x="419" y="807"/>
      <point x="411" y="807" type="curve" smooth="yes"/>
      <point x="403" y="807"/>
      <point x="399" y="812"/>
      <point x="394" y="820" type="curve" smooth="yes"/>
      <point x="351" y="942" type="line" smooth="yes"/>
      <point x="335" y="989"/>
      <point x="307" y="1006"/>
      <point x="260" y="1006" type="curve" smooth="yes"/>
      <point x="215" y="1006" type="line" smooth="yes"/>
      <point x="172" y="1006"/>
      <point x="153" y="972"/>
      <point x="153" y="929" type="curve" smooth="yes"/>
      <point x="153" y="70" type="line" smooth="yes"/>
      <point x="153" y="27"/>
      <point x="179" y="0"/>
      <point x="222" y="0" type="curve" smooth="yes"/>
      <point x="415" y="0" type="line" smooth="yes"/>
      <point x="458" y="0"/>
      <point x="485" y="27"/>
      <point x="485" y="70" type="curve" smooth="yes"/>
      <point x="485" y="573" type="line" smooth="yes"/>
      <point x="485" y="706"/>
      <point x="697" y="859"/>
      <point x="894" y="859" type="curve" smooth="yes"/>
      <point x="1080" y="859"/>
      <point x="1220" y="770"/>
      <point x="1220" y="573" type="curve" smooth="yes"/>
      <point x="1220" y="54" type="line" smooth="yes"/>
      <point x="1220" y="-104"/>
      <point x="1187" y="-184"/>
      <point x="1038" y="-184" type="curve" smooth="yes"/>
      <point x="1027" y="-184"/>
      <point x="926" y="-183"/>
      <point x="916" y="-182" type="curve" smooth="yes"/>
      <point x="874" y="-180"/>
      <point x="853" y="-203"/>
      <point x="853" y="-245" type="curve" smooth="yes"/>
      <point x="853" y="-325" type="line" smooth="yes"/>
      <point x="853" y="-368"/>
      <point x="874" y="-396"/>
    </contour>
  </outline>
</glyph>
<glyph name="ring" format="1">
  <advance width="1717"/>
  <unicode hex="02DA"/>
  <outline>
    <contour>
      <point x="846" y="1688" type="curve" smooth="yes"/>
      <point x="762" y="1688"/>
      <point x="694" y="1736"/>
      <point x="696" y="1831" type="curve"/>
      <point x="694" y="1934"/>
      <point x="767" y="1974"/>
      <point x="846" y="1974" type="curve" smooth="yes"/>
      <point x="921" y="1974"/>
      <point x="994" y="1934"/>
      <point x="994" y="1831" type="curve" smooth="yes"/>
      <point x="994" y="1735"/>
      <point x="925" y="1688"/>
    </contour>
    <contour>
      <point x="846" y="1584" type="curve" smooth="yes"/>
      <point x="961" y="1584"/>
      <point x="1116" y="1651"/>
      <point x="1116" y="1831" type="curve" smooth="yes"/>
      <point x="1116" y="2016"/>
      <point x="973" y="2078"/>
      <point x="846" y="2078" type="curve" smooth="yes"/>
      <point x="717" y="2078"/>
      <point x="573" y="2016"/>
      <point x="573" y="1831" type="curve" smooth="yes"/>
      <point x="573" y="1650"/>
      <point x="728" y="1584"/>
    </contour>
    <contour>
      <point x="845" y="1006" type="move" name="_top"/>
    </contour>
  </outline>
</glyph>
<glyph name="uni030F" format="1">
  <advance width="1352"/>
  <unicode hex="030F"/>
  <outline>
    <contour>
      <point x="525" y="1278" type="curve" smooth="yes"/>
      <point x="569" y="1278" type="line" smooth="yes"/>
      <point x="598" y="1278"/>
      <point x="611" y="1283"/>
      <point x="611" y="1310" type="curve" smooth="yes"/>
      <point x="611" y="1319"/>
      <point x="610" y="1331"/>
      <point x="607" y="1345" type="curve" smooth="yes"/>
      <point x="545" y="1661" type="line" smooth="yes"/>
      <point x="537" y="1704"/>
      <point x="517" y="1716"/>
      <point x="473" y="1716" type="curve" smooth="yes"/>
      <point x="277" y="1716" type="line" smooth="yes"/>
      <point x="257" y="1716"/>
      <point x="249" y="1704"/>
      <point x="249" y="1688" type="curve" smooth="yes"/>
      <point x="249" y="1677"/>
      <point x="254" y="1663"/>
      <point x="261" y="1651" type="curve" smooth="yes"/>
      <point x="469" y="1317" type="line" smooth="yes"/>
      <point x="482" y="1295"/>
      <point x="487" y="1278"/>
    </contour>
    <contour>
      <point x="930" y="1278" type="curve" smooth="yes"/>
      <point x="975" y="1278" type="line" smooth="yes"/>
      <point x="1004" y="1278"/>
      <point x="1017" y="1283"/>
      <point x="1017" y="1310" type="curve" smooth="yes"/>
      <point x="1017" y="1319"/>
      <point x="1016" y="1331"/>
      <point x="1013" y="1345" type="curve" smooth="yes"/>
      <point x="950" y="1661" type="line" smooth="yes"/>
      <point x="942" y="1704"/>
      <point x="923" y="1716"/>
      <point x="879" y="1716" type="curve" smooth="yes"/>
      <point x="683" y="1716" type="line" smooth="yes"/>
      <point x="663" y="1716"/>
      <point x="655" y="1704"/>
      <point x="655" y="1688" type="curve" smooth="yes"/>
      <point x="655" y="1677"/>
      <point x="660" y="1663"/>
      <point x="667" y="1651" type="curve" smooth="yes"/>
      <point x="874" y="1317" type="line" smooth="yes"/>
      <point x="888" y="1295"/>
      <point x="892" y="1278"/>
    </contour>
    <contour>
      <point x="633" y="1006" type="move" name="_top"/>
    </contour>
  </outline>
</glyph>
<glyph name="guilsinglleft" format="1">
  <advance width="718"/>
  <unicode hex="2039"/>
  <outline>
    <contour>
      <point x="601" y="169" type="curve" smooth="yes"/>
      <point x="627" y="169"/>
      <point x="647" y="191"/>
      <point x="647" y="213" type="curve" smooth="yes"/>
      <point x="647" y="308" type="line" smooth="yes"/>
      <point x="647" y="357"/>
      <point x="626" y="378"/>
      <point x="585" y="410" type="curve"/>
      <point x="289" y="623" type="line"/>
      <point x="281" y="630"/>
      <point x="278" y="636"/>
      <point x="278" y="645" type="curve" smooth="yes"/>
      <point x="278" y="653"/>
      <point x="281" y="658"/>
      <point x="289" y="665" type="curve"/>
      <point x="585" y="878" type="line"/>
      <point x="625" y="910"/>
      <point x="647" y="930"/>
      <point x="647" y="979" type="curve" smooth="yes"/>
      <point x="647" y="1063" type="line" smooth="yes"/>
      <point x="647" y="1085"/>
      <point x="627" y="1107"/>
      <point x="600" y="1107" type="curve" smooth="yes"/>
      <point x="591" y="1107"/>
      <point x="580" y="1103"/>
      <point x="569" y="1097" type="curve" smooth="yes"/>
      <point x="142" y="799" type="line"/>
      <point x="96" y="766"/>
      <point x="69" y="738"/>
      <point x="69" y="688" type="curve" smooth="yes"/>
      <point x="69" y="596" type="line" smooth="yes"/>
      <point x="69" y="546"/>
      <point x="96" y="521"/>
      <point x="141" y="488" type="curve"/>
      <point x="569" y="179" type="line" smooth="yes"/>
      <point x="581" y="173"/>
      <point x="592" y="169"/>
    </contour>
  </outline>
</glyph>
<glyph name="uniFB03" format="1">
  <advance width="2729"/>
  <outline>
    <contour>
      <point x="440" y="0" type="curve" smooth="yes"/>
      <point x="625" y="0" type="line" smooth="yes"/>
      <point x="668" y="0"/>
      <point x="703" y="34"/>
      <point x="703" y="77" type="curve" smooth="yes"/>
      <point x="703" y="800" type="line" smooth="yes"/>
      <point x="703" y="820"/>
      <point x="705" y="837"/>
      <point x="725" y="837" type="curve" smooth="yes"/>
      <point x="1283" y="837" type="line" smooth="yes"/>
      <point x="1303" y="837"/>
      <point x="1303" y="820"/>
      <point x="1303" y="800" type="curve" smooth="yes"/>
      <point x="1303" y="77" type="line" smooth="yes"/>
      <point x="1303" y="34"/>
      <point x="1337" y="0"/>
      <point x="1380" y="0" type="curve" smooth="yes"/>
      <point x="1566" y="0" type="line" smooth="yes"/>
      <point x="1609" y="0"/>
      <point x="1643" y="34"/>
      <point x="1643" y="77" type="curve" smooth="yes"/>
      <point x="1643" y="800" type="line" smooth="yes"/>
      <point x="1643" y="820"/>
      <point x="1646" y="837"/>
      <point x="1666" y="837" type="curve" smooth="yes"/>
      <point x="2237" y="837" type="line"/>
      <point x="2237" y="70" type="line" smooth="yes"/>
      <point x="2237" y="27"/>
      <point x="2264" y="0"/>
      <point x="2307" y="0" type="curve" smooth="yes"/>
      <point x="2499" y="0" type="line" smooth="yes"/>
      <point x="2542" y="0"/>
      <point x="2569" y="27"/>
      <point x="2569" y="70" type="curve" smooth="yes"/>
      <point x="2569" y="936" type="line" smooth="yes"/>
      <point x="2569" y="979"/>
      <point x="2542" y="1006"/>
      <point x="2499" y="1006" type="curve" smooth="yes"/>
      <point x="1653" y="1006" type="line" smooth="yes"/>
      <point x="1645" y="1006"/>
      <point x="1643" y="1013"/>
      <point x="1643" y="1016" type="curve" smooth="yes"/>
      <point x="1643" y="1061" type="line" smooth="yes"/>
      <point x="1643" y="1185"/>
      <point x="1698" y="1279"/>
      <point x="1889" y="1279" type="curve" smooth="yes"/>
      <point x="1946" y="1279"/>
      <point x="2063" y="1252"/>
      <point x="2067" y="1252" type="curve" smooth="yes"/>
      <point x="2101" y="1252"/>
      <point x="2108" y="1260"/>
      <point x="2108" y="1297" type="curve" smooth="yes"/>
      <point x="2108" y="1384" type="line" smooth="yes"/>
      <point x="2108" y="1412"/>
      <point x="2086" y="1431"/>
      <point x="2058" y="1438" type="curve"/>
      <point x="2016" y="1446"/>
      <point x="1902" y="1475"/>
      <point x="1795" y="1475" type="curve" smooth="yes"/>
      <point x="1551" y="1475"/>
      <point x="1311" y="1376"/>
      <point x="1304" y="1042" type="curve" smooth="yes"/>
      <point x="1304" y="1020"/>
      <point x="1303" y="1006"/>
      <point x="1281" y="1006" type="curve" smooth="yes"/>
      <point x="713" y="1006" type="line" smooth="yes"/>
      <point x="705" y="1006"/>
      <point x="703" y="1013"/>
      <point x="703" y="1016" type="curve" smooth="yes"/>
      <point x="703" y="1061" type="line" smooth="yes"/>
      <point x="703" y="1185"/>
      <point x="759" y="1279"/>
      <point x="954" y="1279" type="curve" smooth="yes"/>
      <point x="1016" y="1279"/>
      <point x="1144" y="1252"/>
      <point x="1149" y="1252" type="curve" smooth="yes"/>
      <point x="1183" y="1252"/>
      <point x="1190" y="1260"/>
      <point x="1190" y="1297" type="curve" smooth="yes"/>
      <point x="1190" y="1384" type="line" smooth="yes"/>
      <point x="1190" y="1412"/>
      <point x="1168" y="1431"/>
      <point x="1140" y="1438" type="curve"/>
      <point x="1095" y="1446"/>
      <point x="974" y="1475"/>
      <point x="859" y="1475" type="curve" smooth="yes"/>
      <point x="614" y="1475"/>
      <point x="371" y="1376"/>
      <point x="364" y="1042" type="curve" smooth="yes"/>
      <point x="364" y="1020"/>
      <point x="363" y="1006"/>
      <point x="341" y="1006" type="curve" smooth="yes"/>
      <point x="191" y="1006" type="line" smooth="yes"/>
      <point x="148" y="1006"/>
      <point x="124" y="988"/>
      <point x="124" y="945" type="curve" smooth="yes"/>
      <point x="124" y="889" type="line" smooth="yes"/>
      <point x="124" y="846"/>
      <point x="148" y="837"/>
      <point x="191" y="837" type="curve" smooth="yes"/>
      <point x="343" y="837" type="line" smooth="yes"/>
      <point x="363" y="837"/>
      <point x="363" y="820"/>
      <point x="363" y="800" type="curve" smooth="yes"/>
      <point x="363" y="77" type="line" smooth="yes"/>
      <point x="363" y="34"/>
      <point x="397" y="0"/>
    </contour>
    <contour>
      <point x="2307" y="1171" type="curve" smooth="yes"/>
      <point x="2499" y="1171" type="line" smooth="yes"/>
      <point x="2542" y="1171"/>
      <point x="2569" y="1198"/>
      <point x="2569" y="1241" type="curve" smooth="yes"/>
      <point x="2569" y="1378" type="line" smooth="yes"/>
      <point x="2569" y="1421"/>
      <point x="2542" y="1448"/>
      <point x="2499" y="1448" type="curve" smooth="yes"/>
      <point x="2307" y="1448" type="line" smooth="yes"/>
      <point x="2264" y="1448"/>
      <point x="2237" y="1421"/>
      <point x="2237" y="1378" type="curve" smooth="yes"/>
      <point x="2237" y="1241" type="line" smooth="yes"/>
      <point x="2237" y="1198"/>
      <point x="2264" y="1171"/>
    </contour>
  </outline>
</glyph>
